<?xml version="1.0" encoding="UTF-8" standalone="no"?>
<!DOCTYPE svg PUBLIC "-//W3C//DTD SVG 1.1//EN" "http://www.w3.org/Graphics/SVG/1.1/DTD/svg11.dtd">
<svg width="100%" height="100%" viewBox="0 0 2645 1244" version="1.1" xmlns="http://www.w3.org/2000/svg" xmlns:xlink="http://www.w3.org/1999/xlink" xml:space="preserve" xmlns:serif="http://www.serif.com/" style="fill-rule:evenodd;clip-rule:evenodd;stroke-linecap:square;stroke-linejoin:round;stroke-miterlimit:1.5;">
    <g transform="matrix(1,0,0,1,5930.85,400.603)">
        <g transform="matrix(1,0,0,1,-2853.98,-229.533)">
            <rect x="-3076.66" y="-170.862" width="2644.42" height="1243.28" style="fill:rgb(54,54,63);"/>
            <path d="M-432.027,-170.862C-432.027,-170.977 -432.121,-171.07 -432.236,-171.07L-3076.66,-170.975C-3076.72,-170.975 -3076.77,-170.924 -3076.77,-170.862L-3076.73,1072.41C-3076.73,1072.45 -3076.7,1072.48 -3076.66,1072.48C-3076.66,1072.48 -2581.02,1072.45 -2018.89,1072.45C-1809.16,1072.45 -1590.18,1072.47 -1384.23,1072.48C-867.15,1072.51 -432.236,1072.54 -432.236,1072.54C-432.167,1072.54 -432.112,1072.48 -432.112,1072.41L-432.027,-170.862ZM-432.444,-170.653L-432.36,1072.29C-440.737,1072.29 -872.2,1072.32 -1384.23,1072.35C-1590.18,1072.36 -1809.16,1072.38 -2018.89,1072.38C-2577.22,1072.38 -3069.97,1072.35 -3076.59,1072.35C-3076.59,1072.35 -3076.55,-170.748 -3076.55,-170.748C-3056.67,-170.747 -432.444,-170.653 -432.444,-170.653L-432.444,-170.653Z" style="fill:white;"/>
        </g>
        <g transform="matrix(2.45769,0,0,1.77307,-13540.9,-236.941)">
            <rect x="3641.67" y="133.187" width="35.933" height="2.547" style="fill:rgb(121,153,165);"/>
            <path d="M3677.69,133.187C3677.69,133.122 3677.65,133.07 3677.6,133.07L3641.67,133.145C3641.65,133.145 3641.64,133.164 3641.64,133.187L3641.64,135.734C3641.64,135.755 3641.65,135.772 3641.67,135.772C3641.67,135.772 3644.8,135.762 3649.21,135.757C3650.23,135.756 3651.32,135.754 3652.45,135.756C3654.83,135.759 3657.42,135.769 3659.99,135.778C3668.86,135.807 3677.6,135.844 3677.6,135.844C3677.64,135.844 3677.68,135.795 3677.68,135.734L3677.69,133.187ZM3677.52,133.304L3677.52,135.624C3676.63,135.628 3668.36,135.663 3659.99,135.691C3657.42,135.699 3654.83,135.709 3652.45,135.712C3651.32,135.714 3650.23,135.713 3649.21,135.711C3645.04,135.706 3642.01,135.697 3641.7,135.696C3641.7,135.696 3641.7,133.229 3641.7,133.229L3677.52,133.304Z" style="fill:rgb(121,153,165);"/>
        </g>
        <g transform="matrix(1.44534,0,0,1.77307,-9854.36,-258.283)">
            <rect x="3641.67" y="133.187" width="35.933" height="2.547" style="fill:rgb(121,153,165);"/>
            <path d="M3677.74,133.187C3677.74,133.122 3677.68,133.07 3677.6,133.07L3641.67,133.142C3641.64,133.142 3641.61,133.162 3641.61,133.187L3641.62,135.734C3641.62,135.755 3641.64,135.772 3641.67,135.772C3641.67,135.772 3644.8,135.763 3649.21,135.757C3650.23,135.756 3651.32,135.754 3652.45,135.755C3654.83,135.758 3657.42,135.767 3659.99,135.775C3668.86,135.803 3677.6,135.84 3677.6,135.84C3677.67,135.84 3677.73,135.792 3677.73,135.734L3677.74,133.187ZM3677.46,133.304L3677.47,135.629C3676.35,135.634 3668.22,135.667 3659.99,135.693C3657.42,135.701 3654.83,135.71 3652.45,135.713C3651.32,135.714 3650.23,135.712 3649.21,135.711C3645.11,135.706 3642.12,135.697 3641.72,135.696C3641.72,135.696 3641.72,133.232 3641.72,133.232L3677.46,133.304Z" style="fill:rgb(121,153,165);"/>
        </g>
        <g transform="matrix(1.4391,0,0,1.77307,-9831.55,-277.823)">
            <rect x="3641.67" y="133.187" width="35.933" height="2.547" style="fill:rgb(121,153,165);"/>
            <path d="M3677.75,133.187C3677.75,133.122 3677.68,133.07 3677.6,133.07L3641.67,133.142C3641.64,133.142 3641.61,133.162 3641.61,133.187L3641.62,135.734C3641.62,135.755 3641.64,135.772 3641.67,135.772C3641.67,135.772 3644.8,135.763 3649.21,135.757C3650.23,135.756 3651.32,135.754 3652.45,135.755C3654.83,135.758 3657.42,135.767 3659.99,135.775C3668.86,135.803 3677.6,135.84 3677.6,135.84C3677.67,135.84 3677.73,135.792 3677.73,135.734L3677.75,133.187ZM3677.46,133.304L3677.47,135.629C3676.35,135.634 3668.22,135.667 3659.99,135.693C3657.42,135.701 3654.83,135.71 3652.45,135.713C3651.32,135.714 3650.23,135.712 3649.21,135.711C3645.12,135.706 3642.12,135.697 3641.72,135.696C3641.72,135.696 3641.72,133.232 3641.72,133.232L3677.46,133.304Z" style="fill:rgb(121,153,165);"/>
        </g>
        <g transform="matrix(-2.45769,0,0,2.19058,4355.88,-266.824)">
            <path d="M3640.51,210.911L3640.51,225.731" style="fill:none;stroke:rgb(206,156,74);stroke-width:2.68px;"/>
        </g>
        <g transform="matrix(2.45769,0,0,2.45769,-13541.2,-327.388)">
            <path d="M3641.72,114.88L3641.72,102.985C3671.57,103.023 3695.78,127.071 3695.78,156.685C3695.78,186.323 3671.53,210.385 3641.65,210.385C3611.77,210.385 3587.52,186.323 3587.52,156.685C3587.52,156.352 3587.52,156.02 3587.53,155.686L3587.39,155.686L3587.39,85.35L3600.24,85.35C3611.25,85.35 3620.18,94.396 3620.18,105.537L3620.18,137.992C3620.8,143.444 3625.37,147.686 3630.92,147.686C3636.88,147.686 3641.72,142.785 3641.72,136.748L3641.72,133.519L3677.06,133.519C3677.66,133.519 3678.15,133.031 3678.15,132.43C3678.15,131.828 3677.66,131.34 3677.06,131.34L3641.72,131.34L3641.72,124.804L3661.27,124.804C3661.84,124.804 3662.31,124.34 3662.31,123.768C3662.31,123.196 3661.84,122.731 3661.27,122.731L3641.72,122.731L3641.72,116.953L3661.16,116.953C3661.73,116.953 3662.2,116.488 3662.2,115.916C3662.2,115.344 3661.73,114.88 3661.16,114.88L3641.72,114.88Z" style="fill:rgb(41,92,112);"/>
            <clipPath id="_clip1">
                <path d="M3641.72,114.88L3641.72,102.985C3671.57,103.023 3695.78,127.071 3695.78,156.685C3695.78,186.323 3671.53,210.385 3641.65,210.385C3611.77,210.385 3587.52,186.323 3587.52,156.685C3587.52,156.352 3587.52,156.02 3587.53,155.686L3587.39,155.686L3587.39,85.35L3600.24,85.35C3611.25,85.35 3620.18,94.396 3620.18,105.537L3620.18,137.992C3620.8,143.444 3625.37,147.686 3630.92,147.686C3636.88,147.686 3641.72,142.785 3641.72,136.748L3641.72,133.519L3677.06,133.519C3677.66,133.519 3678.15,133.031 3678.15,132.43C3678.15,131.828 3677.66,131.34 3677.06,131.34L3641.72,131.34L3641.72,124.804L3661.27,124.804C3661.84,124.804 3662.31,124.34 3662.31,123.768C3662.31,123.196 3661.84,122.731 3661.27,122.731L3641.72,122.731L3641.72,116.953L3661.16,116.953C3661.73,116.953 3662.2,116.488 3662.2,115.916C3662.2,115.344 3661.73,114.88 3661.16,114.88L3641.72,114.88Z"/>
            </clipPath>
            <g clip-path="url(#_clip1)">
                <g transform="matrix(1.16727,0,0,0.923072,4651.89,-121.45)">
                    <rect x="-910.99" y="224.536" width="28.221" height="38.518" style="fill:white;"/>
                </g>
                <g transform="matrix(-2.05743,-1.13468,0.865334,-1.60843,8230.99,2360.98)">
                    <path d="M2154.75,-183.046C2146.17,-182.15 2139.2,-170.345 2139.2,-156.011C2139.2,-141.677 2146.17,-129.871 2154.75,-128.976C2151.03,-134.472 2148.01,-144.694 2148.01,-156.011C2148.01,-167.328 2151.03,-177.549 2154.75,-183.046Z" style="fill:white;fill-opacity:0.37;"/>
                </g>
            </g>
        </g>
        <g transform="matrix(6.87148,0,0,6.91338,-6331.24,-2424.5)">
            <g transform="matrix(36,0,0,36,135.025,431.992)">
                <path d="M0.079,-0.72L0.227,-0.72L0.227,-0.423L0.504,-0.72L0.699,-0.72L0.404,-0.423L0.714,-0L0.521,-0L0.298,-0.314L0.227,-0.241L0.227,-0L0.079,-0L0.079,-0.72Z" style="fill:white;fill-rule:nonzero;"/>
            </g>
            <g transform="matrix(36,0,0,36,162.031,431.992)">
                <path d="M0.608,-0.592L0.228,-0.592L0.228,-0.439L0.577,-0.439L0.577,-0.314L0.228,-0.314L0.228,-0.129L0.626,-0.129L0.626,-0L0.081,-0L0.081,-0.72L0.608,-0.72L0.608,-0.592Z" style="fill:white;fill-rule:nonzero;"/>
            </g>
            <g transform="matrix(36,0,0,36,187.051,431.992)">
                <path d="M0.487,-0.72L0.657,-0.72L0.417,-0.271L0.417,-0L0.266,-0L0.266,-0.271L0.017,-0.72L0.194,-0.72L0.344,-0.406L0.487,-0.72Z" style="fill:white;fill-rule:nonzero;"/>
            </g>
            <g transform="matrix(36,0,0,36,212.071,431.992)">
                <path d="M0.41,-0.389C0.455,-0.389 0.491,-0.398 0.518,-0.416C0.544,-0.434 0.558,-0.467 0.558,-0.515C0.558,-0.566 0.539,-0.601 0.502,-0.619C0.482,-0.629 0.456,-0.634 0.422,-0.634L0.185,-0.634L0.185,-0.389L0.41,-0.389ZM0.088,-0.717L0.42,-0.717C0.475,-0.717 0.52,-0.709 0.555,-0.693C0.623,-0.663 0.656,-0.606 0.656,-0.524C0.656,-0.481 0.647,-0.446 0.63,-0.418C0.612,-0.391 0.587,-0.369 0.555,-0.353C0.583,-0.341 0.604,-0.326 0.618,-0.308C0.633,-0.289 0.64,-0.259 0.642,-0.217L0.646,-0.121C0.646,-0.094 0.649,-0.073 0.652,-0.06C0.658,-0.037 0.669,-0.023 0.684,-0.016L0.684,-0L0.564,-0C0.561,-0.006 0.559,-0.014 0.557,-0.024C0.555,-0.034 0.553,-0.053 0.552,-0.081L0.546,-0.2C0.544,-0.247 0.526,-0.278 0.494,-0.294C0.475,-0.303 0.446,-0.308 0.406,-0.308L0.185,-0.308L0.185,-0L0.088,-0L0.088,-0.717Z" style="fill:white;fill-rule:nonzero;"/>
            </g>
            <g transform="matrix(36,0,0,36,239.077,431.992)">
                <path d="M0.386,-0.737C0.512,-0.737 0.606,-0.696 0.667,-0.615C0.715,-0.551 0.738,-0.47 0.738,-0.371C0.738,-0.264 0.711,-0.175 0.657,-0.104C0.593,-0.021 0.502,0.021 0.384,0.021C0.273,0.021 0.187,-0.015 0.124,-0.088C0.067,-0.159 0.039,-0.248 0.039,-0.355C0.039,-0.452 0.063,-0.535 0.111,-0.604C0.173,-0.693 0.265,-0.737 0.386,-0.737ZM0.396,-0.066C0.481,-0.066 0.543,-0.097 0.581,-0.158C0.62,-0.219 0.639,-0.29 0.639,-0.37C0.639,-0.454 0.617,-0.522 0.573,-0.573C0.528,-0.625 0.468,-0.65 0.392,-0.65C0.317,-0.65 0.257,-0.625 0.21,-0.574C0.163,-0.523 0.14,-0.448 0.14,-0.349C0.14,-0.269 0.16,-0.202 0.2,-0.148C0.24,-0.093 0.305,-0.066 0.396,-0.066Z" style="fill:white;fill-rule:nonzero;"/>
            </g>
            <g transform="matrix(36,0,0,36,268.087,431.992)">
                <path d="M0.386,-0.737C0.512,-0.737 0.606,-0.696 0.667,-0.615C0.715,-0.551 0.738,-0.47 0.738,-0.371C0.738,-0.264 0.711,-0.175 0.657,-0.104C0.593,-0.021 0.502,0.021 0.384,0.021C0.273,0.021 0.187,-0.015 0.124,-0.088C0.067,-0.159 0.039,-0.248 0.039,-0.355C0.039,-0.452 0.063,-0.535 0.111,-0.604C0.173,-0.693 0.265,-0.737 0.386,-0.737ZM0.396,-0.066C0.481,-0.066 0.543,-0.097 0.581,-0.158C0.62,-0.219 0.639,-0.29 0.639,-0.37C0.639,-0.454 0.617,-0.522 0.573,-0.573C0.528,-0.625 0.468,-0.65 0.392,-0.65C0.317,-0.65 0.257,-0.625 0.21,-0.574C0.163,-0.523 0.14,-0.448 0.14,-0.349C0.14,-0.269 0.16,-0.202 0.2,-0.148C0.24,-0.093 0.305,-0.066 0.396,-0.066Z" style="fill:white;fill-rule:nonzero;"/>
            </g>
            <g transform="matrix(36,0,0,36,297.096,431.992)">
                <path d="M0.14,-0.231C0.142,-0.191 0.152,-0.158 0.168,-0.132C0.201,-0.085 0.257,-0.061 0.339,-0.061C0.375,-0.061 0.409,-0.066 0.438,-0.077C0.496,-0.097 0.525,-0.133 0.525,-0.185C0.525,-0.224 0.513,-0.252 0.489,-0.269C0.464,-0.285 0.425,-0.299 0.373,-0.311L0.275,-0.333C0.212,-0.347 0.167,-0.363 0.141,-0.38C0.095,-0.41 0.072,-0.455 0.072,-0.515C0.072,-0.579 0.095,-0.632 0.139,-0.673C0.184,-0.715 0.247,-0.735 0.329,-0.735C0.404,-0.735 0.468,-0.717 0.52,-0.681C0.573,-0.645 0.599,-0.587 0.599,-0.507L0.508,-0.507C0.503,-0.545 0.493,-0.575 0.477,-0.595C0.447,-0.633 0.397,-0.651 0.326,-0.651C0.268,-0.651 0.227,-0.639 0.202,-0.615C0.177,-0.591 0.165,-0.563 0.165,-0.531C0.165,-0.496 0.179,-0.47 0.208,-0.454C0.228,-0.444 0.271,-0.431 0.339,-0.415L0.439,-0.392C0.488,-0.381 0.525,-0.366 0.552,-0.347C0.597,-0.313 0.62,-0.264 0.62,-0.201C0.62,-0.121 0.591,-0.064 0.533,-0.03C0.476,0.004 0.409,0.021 0.332,0.021C0.243,0.021 0.173,-0.002 0.123,-0.047C0.072,-0.093 0.047,-0.154 0.048,-0.231L0.14,-0.231Z" style="fill:white;fill-rule:nonzero;"/>
            </g>
            <g transform="matrix(36,0,0,36,322.116,431.992)">
                <path d="M0.598,-0.717L0.598,-0.632L0.356,-0.632L0.356,-0L0.258,-0L0.258,-0.632L0.016,-0.632L0.016,-0.717L0.598,-0.717Z" style="fill:white;fill-rule:nonzero;"/>
            </g>
        </g>
        <g transform="matrix(4.54217,0,0,3.06508,-11905.4,-101.764)">
            <g transform="matrix(44.6372,0,0,44.6372,1598.09,203.124)">
                <path d="M0.271,-0.699C0.361,-0.699 0.426,-0.662 0.467,-0.587C0.498,-0.53 0.514,-0.451 0.514,-0.351C0.514,-0.256 0.5,-0.177 0.471,-0.115C0.43,-0.026 0.363,0.019 0.27,0.019C0.186,0.019 0.124,-0.017 0.083,-0.09C0.048,-0.151 0.031,-0.233 0.031,-0.335C0.031,-0.415 0.042,-0.483 0.062,-0.54C0.1,-0.646 0.17,-0.699 0.271,-0.699ZM0.27,-0.061C0.315,-0.061 0.351,-0.081 0.378,-0.122C0.405,-0.162 0.419,-0.237 0.419,-0.347C0.419,-0.427 0.409,-0.492 0.39,-0.543C0.37,-0.594 0.332,-0.62 0.276,-0.62C0.224,-0.62 0.186,-0.596 0.162,-0.547C0.138,-0.498 0.126,-0.427 0.126,-0.332C0.126,-0.261 0.134,-0.203 0.149,-0.16C0.173,-0.094 0.213,-0.061 0.27,-0.061Z" style="fill:rgb(206,156,74);fill-rule:nonzero;"/>
            </g>
        </g>
        <g transform="matrix(2.88698,0,0,2.90458,-11036.2,601.158)">
            <path d="M2254.54,-166.856L2242.71,-166.856C2241.97,-166.856 2241.37,-167.457 2241.37,-168.198L2241.37,-170.883C2241.37,-171.624 2241.97,-172.225 2242.71,-172.225L2254.33,-172.225C2254.11,-173.595 2253.72,-174.908 2253.18,-176.142L2241.43,-176.142C2240.69,-176.142 2240.09,-176.744 2240.09,-177.484L2240.09,-180.169C2240.09,-180.91 2240.69,-181.511 2241.43,-181.511L2249.41,-181.511C2246.48,-184.278 2242.53,-185.976 2238.19,-185.976L2203.66,-185.976L2203.66,-178.197C2203.66,-168.72 2211.35,-161.027 2220.83,-161.027L2251.07,-161.027C2252.99,-161.027 2254.54,-162.578 2254.54,-164.489L2254.54,-166.856Z" style="fill:white;"/>
        </g>
        <g transform="matrix(2.42866,0,0,2.44746,-2720.69,-633.505)">
            <path d="M-823.977,228.864L-823.977,245.809L-824.012,245.809C-828.727,245.809 -832.555,242.013 -832.555,237.336C-832.555,232.66 -828.727,228.864 -824.012,228.864L-823.977,228.864Z" style="fill:rgb(206,156,74);"/>
        </g>
        <g transform="matrix(2.88698,0,0,2.70309,-2342.6,-689.779)">
            <path d="M-824.107,228.217L-839.471,213.362L-824.107,213.362L-824.107,228.217Z" style="fill:rgb(206,156,74);"/>
        </g>
        <g transform="matrix(1.24662,0,0,1.15964,-3748.66,-340.395)">
            <ellipse cx="-763.156" cy="215.56" rx="5.604" ry="5.874" style="fill:none;stroke:rgb(56,56,64);stroke-width:6.01px;stroke-linecap:round;"/>
        </g>
        <g transform="matrix(4.87683,0,0,2.90458,-935.935,-734.019)">
            <path d="M-776.501,243.177L-760.666,243.177" style="fill:none;stroke:rgb(121,153,165);stroke-width:2.16px;stroke-linecap:round;"/>
        </g>
        <g transform="matrix(2.88698,0,0,2.90458,-11032.8,607.907)">
            <path d="M2218.03,-254.327L2213.09,-254.327C2212.42,-254.327 2211.89,-254.866 2211.89,-255.53C2211.89,-256.194 2212.42,-256.733 2213.09,-256.733L2218.91,-256.733C2219.09,-257.469 2219.19,-258.235 2219.22,-259.02L2212.07,-259.02C2211.4,-259.02 2210.86,-259.559 2210.86,-260.223C2210.86,-260.888 2211.4,-261.427 2212.07,-261.427L2219.22,-261.427L2219.22,-264.499L2194.34,-264.499C2189.19,-264.499 2185,-260.314 2185,-255.16L2185,-248.144L2208,-248.144C2212.38,-248.144 2216.18,-250.661 2218.03,-254.327Z" style="fill:rgb(206,156,74);"/>
        </g>
        <g transform="matrix(-2.45769,0,0,2.38926,4359.84,-306.367)">
            <path d="M3642.12,235.218L3642.12,307.348" style="fill:none;stroke:rgb(206,156,74);stroke-width:2.58px;"/>
        </g>
        <g transform="matrix(0.314293,-3.25401,7.76863,0.759524,-4402.1,7587.98)">
            <path d="M2231.14,-141.759L2231.14,-101.139" style="fill:none;stroke:white;stroke-width:3.71px;stroke-linecap:round;"/>
        </g>
        <g transform="matrix(4.3285,0.423189,-0.421691,4.36594,-14819.4,-100.357)">
            <ellipse cx="2385.39" cy="-149.753" rx="12.743" ry="12.711" style="fill:none;stroke:white;stroke-width:5.09px;stroke-linecap:round;"/>
        </g>
        <g transform="matrix(2.97459,0.29082,-0.309464,3.20401,-11333.7,5.69407)">
            <path d="M2186.78,-127.679L2186.78,-118.815" style="fill:none;stroke:white;stroke-width:4.82px;stroke-linecap:round;"/>
        </g>
        <g transform="matrix(2.97459,0.29082,-0.36151,3.74286,-11303.3,75.1136)">
            <path d="M2186.78,-127.679L2186.78,-118.815" style="fill:none;stroke:white;stroke-width:6.55px;stroke-linecap:round;"/>
        </g>
        <g transform="matrix(2.97459,0.29082,-0.514576,5.32762,-11281.2,279.762)">
            <path d="M2186.78,-127.679L2186.78,-118.815" style="fill:none;stroke:white;stroke-width:4.51px;stroke-linecap:round;"/>
        </g>
    </g>
</svg>
