<?xml version="1.0" encoding="UTF-8" standalone="no"?>
<!DOCTYPE svg PUBLIC "-//W3C//DTD SVG 1.1//EN" "http://www.w3.org/Graphics/SVG/1.1/DTD/svg11.dtd">
<svg width="100%" height="100%" viewBox="0 0 466 240" version="1.1" xmlns="http://www.w3.org/2000/svg" xmlns:xlink="http://www.w3.org/1999/xlink" xml:space="preserve" xmlns:serif="http://www.serif.com/" style="fill-rule:evenodd;clip-rule:evenodd;stroke-linecap:square;stroke-linejoin:round;stroke-miterlimit:1.5;">
    <g transform="matrix(1,0,0,1,-4549.35,327.951)">
        <g transform="matrix(0.808339,0,0,0.583167,1866.53,-353.142)">
            <rect x="3641.67" y="133.187" width="35.933" height="2.547" style="fill:rgb(121,153,165);"/>
            <path d="M3677.86,133.187C3677.86,132.99 3677.74,132.83 3677.6,132.83L3641.67,133.058C3641.62,133.058 3641.58,133.116 3641.58,133.187L3641.59,135.734C3641.59,135.798 3641.62,135.85 3641.67,135.85C3641.67,135.85 3644.8,135.819 3649.21,135.803C3650.23,135.8 3651.32,135.796 3652.45,135.8C3654.83,135.809 3657.42,135.84 3659.99,135.866C3668.86,135.956 3677.6,136.069 3677.6,136.069C3677.74,136.069 3677.84,135.919 3677.84,135.734L3677.86,133.187ZM3677.35,133.543L3677.36,135.402C3675.89,135.421 3667.99,135.521 3659.99,135.602C3657.42,135.628 3654.83,135.659 3652.45,135.668C3651.32,135.672 3650.23,135.668 3649.21,135.665C3645.22,135.65 3642.28,135.624 3641.75,135.619C3641.75,135.619 3641.76,133.316 3641.76,133.316L3677.35,133.543Z" style="fill:rgb(121,153,165);"/>
        </g>
        <g transform="matrix(0.475377,0,0,0.583167,3079.03,-360.161)">
            <rect x="3641.67" y="133.187" width="35.933" height="2.547" style="fill:rgb(121,153,165);"/>
            <path d="M3678.04,133.187C3678.04,132.99 3677.84,132.83 3677.6,132.83L3641.67,133.05C3641.58,133.05 3641.5,133.111 3641.5,133.187L3641.53,135.734C3641.53,135.798 3641.59,135.85 3641.67,135.85C3641.67,135.85 3644.8,135.822 3649.21,135.805C3650.23,135.801 3651.32,135.795 3652.45,135.799C3654.83,135.806 3657.42,135.835 3659.99,135.86C3668.86,135.944 3677.6,136.055 3677.6,136.055C3677.82,136.055 3677.99,135.911 3677.99,135.734L3678.04,133.187ZM3677.17,133.542L3677.2,135.418C3675.4,135.441 3667.74,135.535 3659.99,135.609C3657.42,135.633 3654.83,135.662 3652.45,135.669C3651.32,135.673 3650.23,135.667 3649.21,135.663C3645.35,135.648 3642.47,135.625 3641.81,135.619C3641.81,135.619 3641.84,133.325 3641.84,133.325L3677.17,133.542Z" style="fill:rgb(121,153,165);"/>
        </g>
        <g transform="matrix(0.473325,0,0,0.583167,3086.53,-366.588)">
            <rect x="3641.67" y="133.187" width="35.933" height="2.547" style="fill:rgb(121,153,165);"/>
            <path d="M3678.04,133.187C3678.04,132.99 3677.84,132.83 3677.6,132.83L3641.67,133.05C3641.58,133.05 3641.5,133.111 3641.5,133.187L3641.53,135.734C3641.53,135.798 3641.59,135.85 3641.67,135.85C3641.67,135.85 3644.8,135.822 3649.21,135.805C3650.23,135.801 3651.32,135.795 3652.45,135.799C3654.83,135.806 3657.42,135.835 3659.99,135.86C3668.86,135.944 3677.6,136.055 3677.6,136.055C3677.82,136.055 3678,135.911 3678,135.734L3678.04,133.187ZM3677.17,133.542L3677.2,135.418C3675.39,135.441 3667.74,135.535 3659.99,135.609C3657.42,135.633 3654.83,135.662 3652.45,135.669C3651.32,135.673 3650.23,135.667 3649.21,135.663C3645.35,135.648 3642.47,135.625 3641.81,135.619C3641.81,135.619 3641.84,133.325 3641.84,133.325L3677.17,133.542Z" style="fill:rgb(121,153,165);"/>
        </g>
        <g transform="matrix(-0.808339,0,0,0.720486,7752.81,-362.97)">
            <path d="M3640.51,210.911L3640.51,225.731" style="fill:none;stroke:rgb(206,156,74);stroke-width:8.16px;"/>
        </g>
        <g transform="matrix(0.808339,0,0,0.808339,1866.42,-382.89)">
            <path d="M3641.72,114.88L3641.72,102.985C3671.57,103.023 3695.78,127.071 3695.78,156.685C3695.78,186.323 3671.53,210.385 3641.65,210.385C3611.77,210.385 3587.52,186.323 3587.52,156.685C3587.52,156.352 3587.52,156.02 3587.53,155.686L3587.39,155.686L3587.39,85.35L3600.24,85.35C3611.25,85.35 3620.18,94.396 3620.18,105.537L3620.18,137.992C3620.8,143.444 3625.37,147.686 3630.92,147.686C3636.88,147.686 3641.72,142.785 3641.72,136.748L3641.72,133.519L3677.06,133.519C3677.66,133.519 3678.15,133.031 3678.15,132.43C3678.15,131.828 3677.66,131.34 3677.06,131.34L3641.72,131.34L3641.72,124.804L3661.27,124.804C3661.84,124.804 3662.31,124.34 3662.31,123.768C3662.31,123.196 3661.84,122.731 3661.27,122.731L3641.72,122.731L3641.72,116.953L3661.16,116.953C3661.73,116.953 3662.2,116.488 3662.2,115.916C3662.2,115.344 3661.73,114.88 3661.16,114.88L3641.72,114.88Z" style="fill:rgb(41,92,112);"/>
            <clipPath id="_clip1">
                <path d="M3641.72,114.88L3641.72,102.985C3671.57,103.023 3695.78,127.071 3695.78,156.685C3695.78,186.323 3671.53,210.385 3641.65,210.385C3611.77,210.385 3587.52,186.323 3587.52,156.685C3587.52,156.352 3587.52,156.02 3587.53,155.686L3587.39,155.686L3587.39,85.35L3600.24,85.35C3611.25,85.35 3620.18,94.396 3620.18,105.537L3620.18,137.992C3620.8,143.444 3625.37,147.686 3630.92,147.686C3636.88,147.686 3641.72,142.785 3641.72,136.748L3641.72,133.519L3677.06,133.519C3677.66,133.519 3678.15,133.031 3678.15,132.43C3678.15,131.828 3677.66,131.34 3677.06,131.34L3641.72,131.34L3641.72,124.804L3661.27,124.804C3661.84,124.804 3662.31,124.34 3662.31,123.768C3662.31,123.196 3661.84,122.731 3661.27,122.731L3641.72,122.731L3641.72,116.953L3661.16,116.953C3661.73,116.953 3662.2,116.488 3662.2,115.916C3662.2,115.344 3661.73,114.88 3661.16,114.88L3641.72,114.88Z"/>
            </clipPath>
            <g clip-path="url(#_clip1)">
                <g transform="matrix(1.16727,0,0,0.923072,4651.89,-121.45)">
                    <rect x="-910.99" y="224.536" width="28.221" height="38.518" style="fill:white;"/>
                </g>
                <g transform="matrix(-2.05743,-1.13468,0.865334,-1.60843,8230.99,2360.98)">
                    <path d="M2154.75,-183.046C2146.17,-182.15 2139.2,-170.345 2139.2,-156.011C2139.2,-141.677 2146.17,-129.871 2154.75,-128.976C2151.03,-134.472 2148.01,-144.694 2148.01,-156.011C2148.01,-167.328 2151.03,-177.549 2154.75,-183.046Z" style="fill:white;fill-opacity:0.37;"/>
                </g>
            </g>
        </g>
        <g transform="matrix(2.26005,0,0,2.27383,4237.79,-1072.63)">
            <text x="135.025px" y="431.992px" style="font-family:'Helvetica-Bold', 'Helvetica';font-weight:700;font-size:36px;fill:white;">K<tspan x="162.031px 187.051px " y="431.992px 431.992px ">EY</tspan></text>
            <text x="212.071px" y="431.992px" style="font-family:'Helvetica';font-size:36px;fill:white;">R<tspan x="239.077px 268.087px 297.096px 322.116px " y="431.992px 431.992px 431.992px 431.992px ">OOST</tspan></text>
        </g>
        <g transform="matrix(1.49393,0,0,1.00811,2404.45,-308.682)">
            <text x="1598.09px" y="203.124px" style="font-family:'Helvetica';font-size:44.637px;fill:rgb(206,156,74);">0</text>
        </g>
        <g transform="matrix(0.949534,0,0,0.955324,2690.3,-77.4891)">
            <path d="M2254.54,-166.856L2242.71,-166.856C2241.97,-166.856 2241.37,-167.457 2241.37,-168.198L2241.37,-170.883C2241.37,-171.624 2241.97,-172.225 2242.71,-172.225L2254.33,-172.225C2254.11,-173.595 2253.72,-174.908 2253.18,-176.142L2241.43,-176.142C2240.69,-176.142 2240.09,-176.744 2240.09,-177.484L2240.09,-180.169C2240.09,-180.91 2240.69,-181.511 2241.43,-181.511L2249.41,-181.511C2246.48,-184.278 2242.53,-185.976 2238.19,-185.976L2203.66,-185.976L2203.66,-178.197C2203.66,-168.72 2211.35,-161.027 2220.83,-161.027L2251.07,-161.027C2252.99,-161.027 2254.54,-162.578 2254.54,-164.489L2254.54,-166.856Z" style="fill:white;"/>
        </g>
        <g transform="matrix(0.798792,0,0,0.804976,5425.31,-483.573)">
            <path d="M-823.977,228.864L-823.977,245.809L-824.012,245.809C-828.727,245.809 -832.555,242.013 -832.555,237.336C-832.555,232.66 -828.727,228.864 -824.012,228.864L-823.977,228.864Z" style="fill:rgb(206,156,74);"/>
        </g>
        <g transform="matrix(0.949534,0,0,0.889054,5549.66,-502.081)">
            <path d="M-824.107,228.217L-839.471,213.362L-824.107,213.362L-824.107,228.217Z" style="fill:rgb(206,156,74);"/>
        </g>
        <g transform="matrix(0.410016,0,0,0.381409,5087.21,-387.168)">
            <ellipse cx="-763.156" cy="215.56" rx="5.604" ry="5.874" style="fill:none;stroke:rgb(56,56,64);stroke-width:6.01px;stroke-linecap:round;"/>
        </g>
        <g transform="matrix(1.604,0,0,0.955324,6012.32,-516.632)">
            <path d="M-776.501,243.177L-760.666,243.177" style="fill:none;stroke:rgb(121,153,165);stroke-width:2.16px;stroke-linecap:round;"/>
        </g>
        <g transform="matrix(0.949534,0,0,0.955324,2691.43,-75.2692)">
            <path d="M2218.03,-254.327L2213.09,-254.327C2212.42,-254.327 2211.89,-254.866 2211.89,-255.53C2211.89,-256.194 2212.42,-256.733 2213.09,-256.733L2218.91,-256.733C2219.09,-257.469 2219.19,-258.235 2219.22,-259.02L2212.07,-259.02C2211.4,-259.02 2210.86,-259.559 2210.86,-260.223C2210.86,-260.888 2211.4,-261.427 2212.07,-261.427L2219.22,-261.427L2219.22,-264.499L2194.34,-264.499C2189.19,-264.499 2185,-260.314 2185,-255.16L2185,-248.144L2208,-248.144C2212.38,-248.144 2216.18,-250.661 2218.03,-254.327Z" style="fill:rgb(206,156,74);"/>
        </g>
        <g transform="matrix(-0.808339,0,0,0.785832,7754.12,-375.976)">
            <path d="M3642.12,235.218L3642.12,307.348" style="fill:none;stroke:rgb(206,156,74);stroke-width:7.84px;"/>
        </g>
        <g transform="matrix(0.103372,-1.07025,2.55512,0.249809,4872.29,2220.49)">
            <path d="M2231.14,-141.759L2231.14,-101.139" style="fill:none;stroke:white;stroke-width:3.71px;stroke-linecap:round;"/>
        </g>
        <g transform="matrix(1.42365,0.139188,-0.138695,1.43597,1446,-308.219)">
            <ellipse cx="2385.39" cy="-149.753" rx="12.743" ry="12.711" style="fill:none;stroke:white;stroke-width:5.09px;stroke-linecap:round;"/>
        </g>
        <g transform="matrix(0.978349,0.0956513,-0.169245,1.75227,2609.74,-183.197)">
            <path d="M2186.78,-127.679L2186.78,-118.815" style="fill:none;stroke:white;stroke-width:4.51px;stroke-linecap:round;"/>
        </g>
    </g>
</svg>
