<?xml version="1.0" encoding="UTF-8" standalone="no"?>
<!DOCTYPE svg PUBLIC "-//W3C//DTD SVG 1.1//EN" "http://www.w3.org/Graphics/SVG/1.1/DTD/svg11.dtd">
<svg width="100%" height="100%" viewBox="0 0 285 146" version="1.1" xmlns="http://www.w3.org/2000/svg" xmlns:xlink="http://www.w3.org/1999/xlink" xml:space="preserve" xmlns:serif="http://www.serif.com/" style="fill-rule:evenodd;clip-rule:evenodd;stroke-linecap:round;stroke-linejoin:round;stroke-miterlimit:1.5;">
    <g transform="matrix(1,0,0,1,-11071.6,-184.95)">
        <g transform="matrix(1.62607,0,0,0.661178,4720.56,135.642)">
            <g transform="matrix(0.850968,0,0,2.09284,3788.41,-610.708)">
                <text x="135.025px" y="431.992px" style="font-family:'Helvetica-Bold', 'Helvetica';font-weight:700;font-size:36px;fill:white;">K<tspan x="162.031px 187.051px " y="431.992px 431.992px ">EY</tspan></text>
                <text x="212.071px" y="431.992px" style="font-family:'Helvetica';font-size:36px;fill:white;">R<tspan x="239.077px 268.087px 297.096px 322.116px " y="431.992px 431.992px 431.992px 431.992px ">OOST</tspan></text>
            </g>
        </g>
        <g transform="matrix(1.62607,0,0,0.661178,4720.56,135.642)">
            <g transform="matrix(0.357525,0,0,1.78253,3206.04,431.494)">
                <path d="M2231.14,-141.759L2231.14,-101.139" style="fill:none;stroke:rgb(206,156,74);stroke-width:3.94px;"/>
            </g>
        </g>
        <g transform="matrix(1.62607,0,0,0.661178,4720.56,135.642)">
            <g transform="matrix(0.562506,0,0,0.927868,3098.11,92.4359)">
                <text x="1598.09px" y="203.124px" style="font-family:'Helvetica';font-size:44.637px;fill:rgb(206,156,74);">0</text>
            </g>
        </g>
        <g transform="matrix(1.62607,0,0,0.661178,4720.56,135.642)">
            <g transform="matrix(0.0389223,-0.985062,0.962072,0.229925,4027.32,2420.3)">
                <path d="M2231.14,-141.759L2231.14,-101.139" style="fill:none;stroke:white;stroke-width:3.71px;"/>
            </g>
        </g>
        <g transform="matrix(1.62607,0,0,0.661178,4720.56,135.642)">
            <g transform="matrix(0.536044,0.128109,-0.0522225,1.32167,2737.23,92.8617)">
                <ellipse cx="2385.39" cy="-149.753" rx="12.743" ry="12.711" style="fill:none;stroke:white;stroke-width:5.09px;"/>
            </g>
        </g>
        <g transform="matrix(1.62607,0,0,0.661178,4720.56,135.642)">
            <g transform="matrix(0.368375,0.0880377,-0.0383242,0.969926,3168.91,124.966)">
                <path d="M2186.78,-127.679L2186.78,-118.815" style="fill:none;stroke:white;stroke-width:4.82px;"/>
            </g>
        </g>
        <g transform="matrix(1.62607,0,0,0.661178,4720.56,135.642)">
            <g transform="matrix(0.368375,0.0880377,-0.0447697,1.13305,3172.67,145.981)">
                <path d="M2186.78,-127.679L2186.78,-118.815" style="fill:none;stroke:white;stroke-width:6.55px;"/>
            </g>
        </g>
        <g transform="matrix(1.62607,0,0,0.661178,4720.56,135.642)">
            <g transform="matrix(0.368375,0.0880377,-0.0637254,1.61279,3175.41,207.933)">
                <path d="M2186.78,-127.679L2186.78,-118.815" style="fill:none;stroke:white;stroke-width:4.51px;"/>
            </g>
        </g>
        <g transform="matrix(1.62607,0,0,0.661178,4720.56,135.642)">
            <g transform="matrix(0.357525,0,0,0.879282,4281.59,-103.453)">
                <path d="M-823.338,276.837L-823.454,276.837L-823.454,217.323L-812.443,217.323C-803.016,217.323 -795.362,224.977 -795.362,234.404L-795.362,261.865C-794.839,266.479 -790.918,270.068 -786.166,270.068C-781.058,270.068 -776.91,265.921 -776.91,260.812L-776.91,232.244C-751.344,232.277 -730.597,252.624 -730.597,277.682C-730.597,302.76 -751.377,323.12 -776.972,323.12C-802.567,323.12 -823.346,302.76 -823.346,277.682C-823.346,277.401 -823.344,277.119 -823.338,276.837Z" style="fill:rgb(73,106,119);"/>
                <clipPath id="_clip1">
                    <path d="M-823.338,276.837L-823.454,276.837L-823.454,217.323L-812.443,217.323C-803.016,217.323 -795.362,224.977 -795.362,234.404L-795.362,261.865C-794.839,266.479 -790.918,270.068 -786.166,270.068C-781.058,270.068 -776.91,265.921 -776.91,260.812L-776.91,232.244C-751.344,232.277 -730.597,252.624 -730.597,277.682C-730.597,302.76 -751.377,323.12 -776.972,323.12C-802.567,323.12 -823.346,302.76 -823.346,277.682C-823.346,277.401 -823.344,277.119 -823.338,276.837Z"/>
                </clipPath>
                <g clip-path="url(#_clip1)">
                    <g transform="matrix(1,0,0,0.781049,88.4956,42.3407)">
                        <rect x="-910.99" y="224.536" width="28.221" height="38.518" style="fill:white;"/>
                    </g>
                    <g transform="matrix(-1.7626,-0.960101,0.733404,-1.34642,3153.68,2144.71)">
                        <path d="M2154.75,-183.046C2146.17,-182.15 2139.2,-170.345 2139.2,-156.011C2139.2,-141.677 2146.17,-129.871 2154.75,-128.976C2151.03,-134.472 2148.01,-144.694 2148.01,-156.011C2148.01,-167.328 2151.03,-177.549 2154.75,-183.046Z" style="fill:white;fill-opacity:0.37;"/>
                    </g>
                </g>
                <path d="M-823.338,276.837L-823.454,276.837L-823.454,217.323L-812.443,217.323C-803.016,217.323 -795.362,224.977 -795.362,234.404L-795.362,261.865C-794.839,266.479 -790.918,270.068 -786.166,270.068C-781.058,270.068 -776.91,265.921 -776.91,260.812L-776.91,232.244C-751.344,232.277 -730.597,252.624 -730.597,277.682C-730.597,302.76 -751.377,323.12 -776.972,323.12C-802.567,323.12 -823.346,302.76 -823.346,277.682C-823.346,277.401 -823.344,277.119 -823.338,276.837Z" style="fill:none;stroke:rgb(56,56,64);stroke-width:2.57px;"/>
            </g>
        </g>
        <g transform="matrix(1.62607,0,0,0.661178,4720.56,135.642)">
            <g transform="matrix(0.357525,0,0,0.879282,3205.74,305.226)">
                <path d="M2254.54,-166.856L2242.71,-166.856C2241.97,-166.856 2241.37,-167.457 2241.37,-168.198L2241.37,-170.883C2241.37,-171.624 2241.97,-172.225 2242.71,-172.225L2254.33,-172.225C2254.11,-173.595 2253.72,-174.908 2253.18,-176.142L2241.43,-176.142C2240.69,-176.142 2240.09,-176.744 2240.09,-177.484L2240.09,-180.169C2240.09,-180.91 2240.69,-181.511 2241.43,-181.511L2249.41,-181.511C2246.48,-184.278 2242.53,-185.976 2238.19,-185.976L2203.66,-185.976L2203.66,-178.197C2203.66,-168.72 2211.35,-161.027 2220.83,-161.027L2251.07,-161.027C2252.99,-161.027 2254.54,-162.578 2254.54,-164.489L2254.54,-166.856Z" style="fill:white;"/>
            </g>
        </g>
        <g transform="matrix(1.62607,0,0,0.661178,4720.56,135.642)">
            <g transform="matrix(0.300767,0,0,0.740902,4235.46,-68.5343)">
                <path d="M-823.977,228.864L-823.977,245.809L-824.012,245.809C-828.727,245.809 -832.555,242.013 -832.555,237.336C-832.555,232.66 -828.727,228.864 -824.012,228.864L-823.977,228.864Z" style="fill:rgb(206,156,74);"/>
            </g>
        </g>
        <g transform="matrix(1.62607,0,0,0.661178,4720.56,135.642)">
            <g transform="matrix(0.357525,0,0,0.818288,4282.27,-85.6123)">
                <path d="M-824.107,228.217L-839.471,213.362L-824.107,213.362L-824.107,228.217Z" style="fill:rgb(206,156,74);"/>
            </g>
        </g>
        <g transform="matrix(1.62607,0,0,0.661178,4720.56,135.642)">
            <g transform="matrix(0.154382,0,0,0.35105,4108.24,20.1967)">
                <ellipse cx="-763.156" cy="215.56" rx="5.604" ry="5.874" style="fill:none;stroke:rgb(56,56,64);stroke-width:6.01px;"/>
            </g>
        </g>
        <g transform="matrix(1.62607,0,0,0.661178,4720.56,135.642)">
            <g transform="matrix(0.357525,0,0,0.879282,4281.59,-103.453)">
                <path d="M-776.189,256.94L-746.133,256.94" style="fill:none;stroke:rgb(56,56,64);stroke-width:2.5px;"/>
            </g>
        </g>
        <g transform="matrix(1.62607,0,0,0.661178,4720.56,135.642)">
            <g transform="matrix(0.357525,0,0,0.879282,4281.59,-103.453)">
                <path d="M-753.988,250.14L-775.741,250.14" style="fill:none;stroke:rgb(56,56,64);stroke-width:2.5px;"/>
            </g>
        </g>
        <g transform="matrix(1.62607,0,0,0.661178,4720.56,135.642)">
            <g transform="matrix(0.357525,0,0,0.879282,4281.59,-103.453)">
                <path d="M-776.501,243.177L-760.666,243.177" style="fill:none;stroke:rgb(56,56,64);stroke-width:2.5px;"/>
            </g>
        </g>
        <g transform="matrix(1.62607,0,0,0.661178,4720.56,135.642)">
            <g transform="matrix(0.60395,0,0,0.879282,4456.36,-98.9399)">
                <path d="M-776.501,243.177L-760.666,243.177" style="fill:none;stroke:rgb(56,56,64);stroke-width:2.16px;"/>
            </g>
        </g>
        <g transform="matrix(1.62607,0,0,0.661178,4720.56,135.642)">
            <g transform="matrix(0.357525,0,0,0.879282,3206.43,307.144)">
                <path d="M2218.03,-254.327L2213.09,-254.327C2212.42,-254.327 2211.89,-254.866 2211.89,-255.53C2211.89,-256.194 2212.42,-256.733 2213.09,-256.733L2218.91,-256.733C2219.09,-257.469 2219.19,-258.235 2219.22,-259.02L2212.07,-259.02C2211.4,-259.02 2210.86,-259.559 2210.86,-260.223C2210.86,-260.888 2211.4,-261.427 2212.07,-261.427L2219.22,-261.427L2219.22,-264.499L2194.34,-264.499C2189.19,-264.499 2185,-260.314 2185,-255.16L2185,-248.144L2208,-248.144C2212.38,-248.144 2216.18,-250.661 2218.03,-254.327Z" style="fill:rgb(206,156,74);"/>
            </g>
        </g>
        <g transform="matrix(1.62607,0,0,0.661178,4720.56,135.642)">
            <g transform="matrix(0.357525,0,0,0.879282,4281.59,-103.453)">
                <path d="M-776.189,256.94L-746.133,256.94" style="fill:none;stroke:rgb(56,56,64);stroke-width:2.5px;"/>
            </g>
        </g>
        <g transform="matrix(1.62607,0,0,0.661178,4720.56,135.642)">
            <g transform="matrix(0.357525,0,0,0.879282,4281.59,-103.453)">
                <path d="M-753.988,250.14L-775.741,250.14" style="fill:none;stroke:rgb(56,56,64);stroke-width:2.5px;"/>
            </g>
        </g>
        <g transform="matrix(1.62607,0,0,0.661178,4720.56,135.642)">
            <g transform="matrix(0.68309,0.163251,-0.0663797,1.67996,2998,-234.746)">
                <rect x="1472.12" y="108.887" width="17.424" height="0.91" style="fill:none;stroke:rgb(56,56,64);stroke-width:1px;"/>
            </g>
        </g>
        <g transform="matrix(1.62607,0,0,0.661178,4720.56,135.642)">
            <g transform="matrix(0.68309,0.163251,-0.0663797,1.67996,2998.39,-224.536)">
                <rect x="1472.12" y="108.887" width="17.424" height="0.91" style="fill:none;stroke:rgb(56,56,64);stroke-width:1px;"/>
            </g>
        </g>
    </g>
</svg>
