<?xml version="1.0" encoding="UTF-8" standalone="no"?>
<!DOCTYPE svg PUBLIC "-//W3C//DTD SVG 1.1//EN" "http://www.w3.org/Graphics/SVG/1.1/DTD/svg11.dtd">
<svg width="100%" height="100%" viewBox="0 0 905 1219" version="1.1" xmlns="http://www.w3.org/2000/svg" xmlns:xlink="http://www.w3.org/1999/xlink" xml:space="preserve" xmlns:serif="http://www.serif.com/" style="fill-rule:evenodd;clip-rule:evenodd;stroke-linejoin:round;stroke-miterlimit:2;">
    <g transform="matrix(1,0,0,1,-179.926,1754.49)">
        <g transform="matrix(1,0,0,1,1670.2,-2492.94)">
            <g transform="matrix(39.1764,0,0,39.1764,-202500,39148.4)">
                <path d="M5138.2,-980.369C5138.36,-980.373 5138.51,-980.375 5138.66,-980.375C5147.12,-980.375 5153.98,-973.42 5153.98,-964.852C5153.98,-956.284 5147.12,-949.329 5138.66,-949.329C5138.51,-949.329 5138.36,-949.331 5138.2,-949.336L5138.2,-980.369Z" style="fill:rgb(203,35,41);fill-opacity:0.16;"/>
            </g>
            <g transform="matrix(-39.1764,-4.79772e-15,4.79772e-15,-39.1764,200196,-38935.7)">
                <path d="M5140.42,-1023.45C5140.42,-1023.45 5138.28,-1019.88 5138.28,-1018.34C5138.28,-1017.16 5139.23,-1016.2 5140.42,-1016.2C5141.6,-1016.2 5142.56,-1017.16 5142.56,-1018.34C5142.56,-1019.88 5140.42,-1023.45 5140.42,-1023.45Z" style="fill:white;fill-opacity:0.16;"/>
            </g>
            <g transform="matrix(-39.1764,4.79772e-15,4.79772e-15,39.1764,200196,41678.5)">
                <path d="M5140.42,-1023.45C5140.42,-1023.45 5138.28,-1019.88 5138.28,-1018.34C5138.28,-1017.16 5139.23,-1016.2 5140.42,-1016.2C5141.6,-1016.2 5142.56,-1017.16 5142.56,-1018.34C5142.56,-1019.88 5140.42,-1023.45 5140.42,-1023.45Z" style="fill:white;fill-opacity:0.16;"/>
            </g>
            <g transform="matrix(2.39886e-15,39.1764,39.1764,-2.39886e-15,39136.5,-200036)">
                <path d="M5140.42,-1023.45C5140.42,-1023.45 5138.28,-1019.88 5138.28,-1018.34C5138.28,-1017.16 5139.23,-1016.2 5140.42,-1016.2C5141.6,-1016.2 5142.56,-1017.16 5142.56,-1018.34C5142.56,-1019.88 5140.42,-1023.45 5140.42,-1023.45Z" style="fill:white;fill-opacity:0.16;"/>
            </g>
            <g transform="matrix(32.0534,22.5249,22.5249,-32.0534,-142753,-147376)">
                <path d="M5140.42,-1023.45C5140.42,-1023.45 5138.28,-1019.88 5138.28,-1018.34C5138.28,-1017.16 5139.23,-1016.2 5140.42,-1016.2C5141.6,-1016.2 5142.56,-1017.16 5142.56,-1018.34C5142.56,-1019.88 5140.42,-1023.45 5140.42,-1023.45Z" style="fill:white;fill-opacity:0.16;"/>
            </g>
            <g transform="matrix(32.0534,-22.5249,22.5249,32.0534,-142740,150102)">
                <path d="M5140.42,-1023.45C5140.42,-1023.45 5138.28,-1019.88 5138.28,-1018.34C5138.28,-1017.16 5139.23,-1016.2 5140.42,-1016.2C5141.6,-1016.2 5142.56,-1017.16 5142.56,-1018.34C5142.56,-1019.88 5140.42,-1023.45 5140.42,-1023.45Z" style="fill:white;fill-opacity:0.16;"/>
            </g>
            <g transform="matrix(1,0,0,1,-0.365539,-3.56938)">
                <path d="M-1489.91,823.738C-1401.5,771.776 -1298.87,742.029 -1189.44,742.029C-858.224,742.029 -589.32,1014.53 -589.32,1350.18C-589.32,1685.83 -858.224,1958.33 -1189.44,1958.33C-1298.87,1958.33 -1401.5,1928.59 -1489.91,1876.62L-1489.91,823.738Z" style="fill:rgb(236,28,36);fill-opacity:0.16;"/>
            </g>
            <path d="M-1488.96,1012.94L-1488.96,1164.68C-1433.46,1207.45 -1335.1,1251.2 -1335.1,1251.2C-1335.1,1251.2 -1346.99,1088.28 -1381.53,1039.15C-1406,1004.32 -1452.22,993.77 -1488.96,1012.94Z" style="fill:white;fill-opacity:0.16;"/>
            <path d="M-1489.26,1309.88L-1489.26,1425.37C-1433.26,1400.74 -1377.97,1367.63 -1377.97,1367.63C-1377.97,1367.63 -1433.26,1334.51 -1489.26,1309.88Z" style="fill:white;fill-opacity:0.16;"/>
            <path d="M-1489.98,1593.42C-1433.5,1554.7 -1352.19,1518.53 -1352.19,1518.53C-1352.19,1518.53 -1364.08,1681.45 -1398.61,1730.59C-1419.63,1760.49 -1456.67,1772.5 -1489.98,1763.16L-1489.98,1593.42Z" style="fill:white;fill-opacity:0.16;"/>
        </g>
    </g>
</svg>
