<?xml version="1.0" encoding="UTF-8" standalone="no"?>
<!DOCTYPE svg PUBLIC "-//W3C//DTD SVG 1.1//EN" "http://www.w3.org/Graphics/SVG/1.1/DTD/svg11.dtd">
<svg width="100%" height="100%" viewBox="0 0 3716 579" version="1.1" xmlns="http://www.w3.org/2000/svg" xmlns:xlink="http://www.w3.org/1999/xlink" xml:space="preserve" xmlns:serif="http://www.serif.com/" style="fill-rule:evenodd;clip-rule:evenodd;stroke-linecap:square;stroke-linejoin:round;stroke-miterlimit:1.5;">
    <g>
        <path d="M58.378,499.213C64.54,505.814 60.956,536.354 56.843,549.376C53.198,560.916 43.084,575.007 33.7,577.35C24.316,579.692 2.843,574.693 0.538,563.43C-1.767,552.167 10.23,520.473 19.87,509.77C28.778,499.881 52.216,492.612 58.378,499.213Z" style="fill:rgb(110,157,116);fill-opacity:0.16;stroke:rgb(110,157,116);stroke-width:0.5px;"/>
        <path d="M52.853,454.676C45.473,442.634 72.098,404.673 87.315,395.188C102.533,385.703 133.715,390.672 144.158,397.766C154.601,404.86 152.068,426.14 149.974,437.753C147.909,449.207 143.061,465.443 131.595,467.441C115.408,470.261 60.233,466.718 52.853,454.676Z" style="fill:rgb(110,157,116);fill-opacity:0.16;"/>
        <path d="M161.316,405.756C172.962,398.061 224.317,395.341 236.561,400.175C247.298,404.414 240.655,426.139 234.779,434.761C228.903,443.383 212.652,449.976 201.303,451.908C189.954,453.839 173.349,454.041 166.684,446.349C160.02,438.657 149.929,413.281 161.316,405.756Z" style="fill:rgb(110,157,116);fill-opacity:0.16;"/>
        <path d="M336.865,402.327C362.377,402.432 389.223,420.929 411.18,420.628C431.459,420.351 460.682,397.402 468.606,400.523C476.529,403.644 470.329,432.748 458.721,439.356C437.17,451.622 369.669,471.218 339.297,474.12C317.677,476.187 290.415,465.793 276.492,456.772C264.681,449.118 245.697,429.064 255.759,419.99C265.821,410.916 310.962,402.221 336.865,402.327Z" style="fill:rgb(136,185,159);fill-opacity:0.16;"/>
        <path d="M468.606,400.523C487.122,393.526 516.423,402.846 534.504,402.943C548.713,403.02 565.914,397.624 577.091,401.105C587.721,404.417 604.037,417.008 601.568,423.834C599.098,430.659 576.613,440.359 562.275,442.057C532.582,445.572 439.019,451.848 423.407,444.926C407.796,438.003 450.09,407.52 468.606,400.523Z" style="fill:rgb(110,157,116);fill-opacity:0.16;"/>
        <path d="M610.657,405.129C625.915,397.226 679.674,393.879 699.283,394.829C710.319,395.365 734.614,405.799 728.309,410.833C722.005,415.867 681.555,419.797 661.459,425.033C643.26,429.774 616.199,445.564 607.731,442.247C599.264,438.93 599.636,410.837 610.657,405.129Z" style="fill:rgb(110,157,116);fill-opacity:0.16;"/>
        <path d="M752.326,395.625C767.656,391.426 812.905,394.247 821.071,404.535C829.238,414.823 812.539,450.058 801.324,457.354C790.11,464.65 765.822,452.914 753.783,448.31C744.163,444.631 729.337,438.509 729.094,429.729C728.851,420.948 739.06,399.259 752.326,395.625Z" style="fill:rgb(161,170,141);fill-opacity:0.16;"/>
        <path d="M472.611,132.663C455.35,142.966 473.257,180.82 464.566,192.43C455.875,204.04 428.004,190.989 420.466,202.324C412.928,213.659 419.449,246.363 419.337,260.441C419.267,269.227 421.131,278.111 419.793,286.794C417.739,300.136 405.263,325.459 407.009,340.492C408.674,354.825 420.774,366.134 430.272,376.996C439.89,387.995 451.925,399.474 464.718,406.487C477.512,413.499 492.364,420.233 507.033,419.071C522.974,417.807 560.363,398.906 560.363,398.906C560.363,398.906 601.989,428.892 623.14,427.276C644.29,425.66 678.666,400.524 687.269,389.212C693.792,380.633 673.449,370.098 674.757,359.401C676.163,347.896 695.35,332.195 695.706,320.183C696.062,308.172 677.568,299.676 676.894,287.33C676.22,274.985 693.374,256.383 691.663,246.112C689.953,235.841 673.969,231.383 666.631,225.707C660.464,220.937 650.568,219.283 647.635,212.058C643.771,202.54 648.284,178.207 643.449,168.598C639.164,160.084 625.652,160.845 618.625,154.405C609.489,146.035 604.093,120.676 588.637,118.374C564.302,114.751 493.29,120.321 472.611,132.663Z" style="fill:rgb(190,217,182);fill-opacity:0.16;"/>
        <path d="M324.414,488.604L286.59,493.567L285.557,411.699L321.772,389.212L324.414,488.604Z" style="fill:rgb(151,147,120);fill-opacity:0.16;"/>
        <path d="M962.597,54.072C945.55,168.366 900.705,338.517 911.455,396.955C918.444,434.95 1006.57,431.012 1027.09,404.7C1047.62,378.388 1042.86,293.723 1034.59,239.083C1025.71,180.418 994.062,114.833 973.798,52.708" style="fill:rgb(166,213,193);fill-opacity:0.16;"/>
        <path d="M1114.7,46.367C1102.87,59.924 1077.19,130.878 1072.19,166.626C1067.8,198.004 1085.43,230.918 1084.68,260.853C1083.95,289.865 1051.1,331.824 1067.68,346.239C1084.25,360.655 1166.39,362.987 1184.12,347.348C1201.86,331.709 1179.02,283.846 1174.1,252.404C1167.28,208.726 1153.07,119.62 1143.17,85.28C1138.72,69.837 1125.26,34.256 1114.7,46.367Z" style="fill:rgb(143,196,168);fill-opacity:0.16;"/>
        <path d="M930.769,360.628C942.927,342.835 986.161,325.41 1008.13,322.661C1027.5,320.238 1043.41,340.63 1062.62,344.135C1088.01,348.769 1136.64,351.758 1160.49,350.467C1176.26,349.614 1193.88,326.236 1205.71,336.39C1217.55,346.543 1232.59,395.901 1231.51,411.39C1230.65,423.666 1211.42,427.53 1199.24,429.328C1171.29,433.456 1103.36,435.602 1063.79,436.158C1029.79,436.636 983.272,433.788 961.837,432.665C952.899,432.197 938.727,437.64 935.183,429.422C930.005,417.415 918.61,378.422 930.769,360.628Z" style="fill:rgb(161,170,141);fill-opacity:0.16;"/>
        <path d="M1251.82,46.379C1230.55,42.098 1215.81,195.918 1208.48,246.197C1203.58,279.794 1203.05,326.586 1207.82,348.051C1210.7,361.001 1226.1,367.598 1237.12,374.986C1248.74,382.773 1264.52,393.438 1277.51,394.773C1290.49,396.107 1308.94,394.603 1315.04,382.993C1322.77,368.271 1328.61,331.687 1323.87,306.442C1313.34,250.339 1283.67,52.79 1251.82,46.379Z" style="fill:rgb(138,181,153);fill-opacity:0.16;"/>
        <path d="M1245.58,381.505L1242.99,419.111L1259.18,418.121L1262.09,389.456L1245.58,381.505Z" style="fill:rgb(161,170,141);fill-opacity:0.16;"/>
        <path d="M1386.25,374.295L1383.66,411.901L1399.85,410.911L1402.76,382.246L1386.25,374.295Z" style="fill:rgb(161,170,141);fill-opacity:0.16;"/>
        <path d="M1384,41.684C1372.98,49.732 1351.85,94.894 1347.4,124.854C1339.48,178.179 1332.29,318.455 1336.48,361.631C1337.85,375.703 1358.79,380.755 1372.57,383.908C1392.14,388.383 1441.75,410.094 1453.85,388.478C1465.95,366.862 1450.94,298.688 1445.19,254.21C1438.46,202.225 1423.7,111.991 1413.5,76.57C1409.29,61.936 1395.02,33.637 1384,41.684Z" style="fill:rgb(169,207,182);fill-opacity:0.16;"/>
        <path d="M1528.18,40.735C1511.13,155.029 1466.29,325.18 1477.03,383.618C1484.02,421.614 1572.15,417.676 1592.67,391.364C1613.2,365.052 1608.44,280.386 1600.17,225.747C1591.29,167.081 1559.64,101.497 1539.38,39.371" style="fill:rgb(166,213,193);fill-opacity:0.16;"/>
        <path d="M1680.28,33.03C1668.45,46.588 1642.77,117.541 1637.77,153.289C1633.38,184.667 1651.01,217.581 1650.26,247.517C1649.53,276.528 1616.68,318.487 1633.26,332.903C1649.83,347.319 1731.97,349.65 1749.7,334.011C1767.44,318.372 1744.59,270.51 1739.68,239.068C1732.86,195.39 1718.65,106.283 1708.75,71.944C1704.3,56.5 1690.84,20.92 1680.28,33.03Z" style="fill:rgb(143,196,168);fill-opacity:0.16;"/>
        <path d="M1817.4,33.043C1796.13,28.762 1781.39,182.581 1774.06,232.86C1769.16,266.457 1768.63,313.25 1773.4,334.715C1776.28,347.665 1791.68,354.261 1802.7,361.649C1814.32,369.436 1830.1,380.102 1843.09,381.436C1856.07,382.771 1874.52,381.266 1880.62,369.656C1888.35,354.934 1894.19,318.35 1889.45,293.105C1878.91,237.003 1849.25,39.453 1817.4,33.043Z" style="fill:rgb(138,181,153);fill-opacity:0.16;"/>
        <path d="M1811.16,368.168L1808.57,405.774L1824.76,404.784L1827.67,376.119L1811.16,368.168Z" style="fill:rgb(161,170,141);fill-opacity:0.16;"/>
        <path d="M1951.83,360.958L1949.24,398.564L1965.42,397.575L1968.34,368.909L1951.83,360.958Z" style="fill:rgb(161,170,141);fill-opacity:0.16;"/>
        <path d="M1949.58,28.348C1938.56,36.395 1917.43,81.558 1912.98,111.518C1905.06,164.842 1897.87,305.118 1902.06,348.294C1903.43,362.366 1924.37,367.419 1938.15,370.571C1957.72,375.046 2007.33,396.758 2019.43,375.142C2031.53,353.525 2016.52,285.352 2010.77,240.873C2004.04,188.889 1989.28,98.654 1979.08,63.233C1974.87,48.599 1960.6,20.301 1949.58,28.348Z" style="fill:rgb(169,207,182);fill-opacity:0.16;"/>
        <path d="M2133.88,33.17C2116.83,147.465 2071.99,317.615 2082.74,376.054C2089.72,414.049 2177.85,410.111 2198.38,383.799C2218.9,357.487 2214.14,272.821 2205.87,218.182C2196.99,159.516 2165.34,93.932 2145.08,31.807" style="fill:rgb(166,213,193);fill-opacity:0.16;"/>
        <path d="M2285.98,25.465C2274.15,39.023 2248.47,109.977 2243.47,145.724C2239.08,177.103 2256.71,210.016 2255.96,239.952C2255.23,268.964 2222.38,310.922 2238.96,325.338C2255.53,339.754 2337.67,342.086 2355.41,326.446C2373.14,310.807 2350.3,262.945 2345.38,231.503C2338.56,187.825 2324.35,98.719 2314.45,64.379C2310,48.935 2296.55,13.355 2285.98,25.465Z" style="fill:rgb(143,196,168);fill-opacity:0.16;"/>
        <path d="M2423.1,25.478C2401.83,21.197 2387.09,175.017 2379.76,225.295C2374.86,258.892 2374.33,305.685 2379.1,327.15C2381.98,340.1 2397.38,346.696 2408.4,354.084C2420.02,361.871 2435.8,372.537 2448.79,373.871C2461.77,375.206 2480.22,373.701 2486.32,362.091C2494.05,347.37 2499.89,310.785 2495.15,285.54C2484.62,229.438 2454.95,31.889 2423.1,25.478Z" style="fill:rgb(138,181,153);fill-opacity:0.16;"/>
        <path d="M2416.86,360.603L2414.27,398.21L2430.46,397.22L2433.37,368.554L2416.86,360.603Z" style="fill:rgb(161,170,141);fill-opacity:0.16;"/>
        <path d="M2557.53,353.393L2554.94,391L2571.12,390.01L2574.04,361.344L2557.53,353.393Z" style="fill:rgb(161,170,141);fill-opacity:0.16;"/>
        <path d="M2555.28,20.783C2544.26,28.83 2523.13,73.993 2518.68,103.953C2510.76,157.277 2503.57,297.554 2507.76,340.729C2509.13,354.801 2530.07,359.854 2543.85,363.007C2563.42,367.481 2613.03,389.193 2625.13,367.577C2637.23,345.96 2622.22,277.787 2616.47,233.308C2609.74,181.324 2594.98,91.089 2584.78,55.669C2580.57,41.034 2566.3,12.736 2555.28,20.783Z" style="fill:rgb(169,207,182);fill-opacity:0.16;"/>
        <path d="M2732.31,19.245C2715.26,133.54 2670.42,303.691 2681.17,362.129C2688.16,400.124 2776.29,396.186 2796.81,369.874C2817.33,343.562 2812.58,258.896 2804.31,204.257C2795.42,145.592 2763.78,80.007 2743.51,17.882" style="fill:rgb(166,213,193);fill-opacity:0.16;"/>
        <path d="M2864.1,26.11C2852.27,39.667 2826.6,110.621 2821.59,146.369C2817.2,177.747 2834.84,210.661 2834.08,240.596C2833.35,269.608 2800.51,311.567 2817.08,325.982C2833.65,340.398 2915.79,342.73 2933.53,327.091C2951.26,311.452 2928.42,263.589 2923.5,232.147C2916.68,188.469 2902.47,99.363 2892.57,65.023C2888.12,49.58 2874.67,13.999 2864.1,26.11Z" style="fill:rgb(143,196,168);fill-opacity:0.16;"/>
        <path d="M3003.7,5.118C2982.43,0.837 2967.7,154.657 2960.36,204.936C2955.46,238.532 2954.93,285.325 2959.71,306.79C2962.59,319.74 2977.99,326.337 2989.01,333.725C3000.62,341.512 3016.41,352.177 3029.39,353.512C3042.38,354.846 3060.83,353.342 3066.92,341.732C3074.65,327.01 3080.5,290.426 3075.76,265.18C3065.22,209.078 3035.56,11.529 3003.7,5.118Z" style="fill:rgb(138,181,153);fill-opacity:0.16;"/>
        <path d="M3015.29,346.678L3012.7,384.285L3028.89,383.295L3031.81,354.629L3015.29,346.678Z" style="fill:rgb(161,170,141);fill-opacity:0.16;"/>
        <path d="M3155.96,339.468L3153.37,377.075L3169.56,376.085L3172.47,347.419L3155.96,339.468Z" style="fill:rgb(161,170,141);fill-opacity:0.16;"/>
        <path d="M3134.91,1.413C3123.89,9.461 3102.76,54.623 3098.31,84.583C3090.39,137.907 3083.19,278.184 3087.39,321.36C3088.75,335.431 3109.7,340.484 3123.48,343.637C3143.04,348.111 3192.65,369.823 3204.76,348.207C3216.86,326.591 3201.85,258.417 3196.1,213.939C3189.37,161.954 3174.6,71.72 3164.41,36.299C3160.19,21.665 3145.92,-6.634 3134.91,1.413Z" style="fill:rgb(169,207,182);fill-opacity:0.16;"/>
        <path d="M1476.86,304.791C1461.56,297.628 1482.22,255.638 1492.84,236.446C1503.46,217.254 1519.87,197.859 1540.59,189.638C1561.8,181.22 1601.9,190.467 1620.11,185.939C1632.36,182.892 1638.47,156.975 1649.84,162.47C1665.13,169.865 1703.58,200.811 1711.9,230.31C1724.82,276.148 1733.68,415.778 1727.34,437.494C1721.01,459.209 1688.86,378.707 1673.9,360.603C1663.68,348.217 1641.79,340.656 1637.64,328.868C1633.49,317.08 1657.82,298.117 1649,289.876C1640.17,281.636 1606.33,277.551 1584.69,279.426C1556.01,281.912 1492.17,311.955 1476.86,304.791Z" style="fill:rgb(153,196,151);fill-opacity:0.16;"/>
        <path d="M1476.86,304.791C1469.29,320.681 1491.58,352.392 1485.92,370.811C1480.27,389.23 1449.01,395.597 1442.91,415.303C1435.3,439.926 1435.88,512.003 1440.24,518.549C1444.59,525.096 1452.77,471.395 1469.02,454.585C1485.44,437.599 1512.43,413.824 1538.75,416.639C1566.13,419.568 1613.62,453.495 1633.32,472.161C1648.12,486.195 1644.71,537.796 1656.9,528.636C1669.08,519.476 1695.66,447.069 1706.42,417.199C1714.27,395.424 1732,370.045 1721.51,349.415C1710.8,328.365 1661.33,302.639 1642.17,290.904C1631.5,284.367 1618.95,280.732 1606.56,279.005C1588.1,276.434 1553.01,271.178 1531.4,275.475C1511.15,279.5 1484.44,288.902 1476.86,304.791Z" style="fill:rgb(129,171,123);fill-opacity:0.16;"/>
        <path d="M3446.34,250.217C3458.01,234.824 3496.84,198.335 3522.01,181.302C3544.73,165.917 3570.8,146.784 3597.31,148.016C3623.81,149.249 3661.42,168.018 3681.03,188.698C3700.65,209.379 3717.89,247.527 3714.99,272.099C3712.09,296.67 3689.3,326.664 3663.63,336.129C3628.63,349.033 3538.74,354.737 3504.99,349.521C3484.36,346.334 3469.96,317.477 3461.13,304.833C3454.93,295.956 3454.46,282.761 3452,273.658C3449.9,265.899 3441.48,256.622 3446.34,250.217Z" style="fill:rgb(149,198,151);fill-opacity:0.16;"/>
        <path d="M3545.35,132.616C3551.63,109.24 3511.7,96.823 3490.65,84.864C3465.84,70.765 3423.45,55.227 3396.49,48.02C3374.64,42.178 3347.92,37.932 3328.94,41.623C3311.15,45.084 3295.88,58.882 3282.65,70.164C3269.65,81.249 3260.96,96.579 3249.58,109.314C3236.44,124.011 3210.88,145.414 3203.82,158.346C3199.22,166.76 3198.67,182.544 3207.2,186.905C3217.41,192.118 3255.79,184.119 3265.04,189.623C3273.75,194.803 3266.27,210.442 3262.72,219.929C3257.89,232.794 3235.91,256.619 3236.11,266.812C3236.31,277.006 3253.55,279.91 3263.89,281.092C3282.9,283.265 3330.66,277.322 3350.15,279.85C3361.65,281.342 3370.16,295.683 3380.82,296.259C3391.49,296.835 3402.55,282.081 3414.14,283.306C3425.74,284.531 3445.7,306.617 3450.38,303.609C3455.06,300.602 3435.88,276.686 3442.23,265.262C3458.06,236.763 3537.28,162.682 3545.35,132.616Z" style="fill:rgb(167,208,163);fill-opacity:0.16;"/>
    </g>
</svg>
